<mxfile host="65bd71144e">
    <diagram id="kb6ERmdoE3fj__gCxbpV" name="Page-1">
        <mxGraphModel dx="1692" dy="742" grid="1" gridSize="10" guides="1" tooltips="1" connect="1" arrows="1" fold="1" page="0" pageScale="1" pageWidth="827" pageHeight="1169" math="0" shadow="0">
            <root>
                <mxCell id="0"/>
                <mxCell id="1" parent="0"/>
                <mxCell id="EBAIrEwSQ_sO8G7dM4pI-14" style="edgeStyle=orthogonalEdgeStyle;rounded=0;orthogonalLoop=1;jettySize=auto;html=1;exitX=0.5;exitY=1;exitDx=0;exitDy=0;entryX=0.5;entryY=0;entryDx=0;entryDy=0;" parent="1" source="EBAIrEwSQ_sO8G7dM4pI-9" target="4" edge="1">
                    <mxGeometry relative="1" as="geometry">
                        <Array as="points"/>
                        <mxPoint x="-115" y="-77" as="targetPoint"/>
                    </mxGeometry>
                </mxCell>
                <object label="" type="initialstate" id="EBAIrEwSQ_sO8G7dM4pI-9">
                    <mxCell style="ellipse;whiteSpace=wrap;html=1;aspect=fixed;glass=0;sketch=0;fillColor=#000000;" parent="1" vertex="1">
                        <mxGeometry x="-130" y="-170" width="30" height="30" as="geometry"/>
                    </mxCell>
                </object>
                <mxCell id="EBAIrEwSQ_sO8G7dM4pI-15" style="edgeStyle=orthogonalEdgeStyle;rounded=0;orthogonalLoop=1;jettySize=auto;html=1;exitX=0.5;exitY=0;exitDx=0;exitDy=0;entryX=0;entryY=0.5;entryDx=0;entryDy=0;" parent="1" source="EBAIrEwSQ_sO8G7dM4pI-10" target="4" edge="1">
                    <mxGeometry relative="1" as="geometry"/>
                </mxCell>
                <mxCell id="EBAIrEwSQ_sO8G7dM4pI-18" value="AlarmOff" style="edgeLabel;html=1;align=center;verticalAlign=middle;resizable=0;points=[];" parent="EBAIrEwSQ_sO8G7dM4pI-15" vertex="1" connectable="0">
                    <mxGeometry x="0.3111" y="1" relative="1" as="geometry">
                        <mxPoint x="-19" y="1" as="offset"/>
                    </mxGeometry>
                </mxCell>
                <object label="AlarmOn" type="state" id="EBAIrEwSQ_sO8G7dM4pI-10">
                    <mxCell style="swimlane;rounded=1;whiteSpace=wrap;html=1;glass=0;sketch=0;startSize=23;" parent="1" vertex="1">
                        <mxGeometry x="-510" y="75" width="130" height="80" as="geometry"/>
                    </mxCell>
                </object>
                <mxCell id="EBAIrEwSQ_sO8G7dM4pI-16" style="edgeStyle=orthogonalEdgeStyle;rounded=0;orthogonalLoop=1;jettySize=auto;html=1;exitX=0;exitY=0.75;exitDx=0;exitDy=0;entryX=0.5;entryY=1;entryDx=0;entryDy=0;" parent="1" source="EBAIrEwSQ_sO8G7dM4pI-12" target="EBAIrEwSQ_sO8G7dM4pI-10" edge="1">
                    <mxGeometry relative="1" as="geometry">
                        <mxPoint x="-280" y="260" as="targetPoint"/>
                    </mxGeometry>
                </mxCell>
                <mxCell id="EBAIrEwSQ_sO8G7dM4pI-21" value="End" style="edgeLabel;html=1;align=center;verticalAlign=middle;resizable=0;points=[];" parent="EBAIrEwSQ_sO8G7dM4pI-16" vertex="1" connectable="0">
                    <mxGeometry x="-0.0875" y="1" relative="1" as="geometry">
                        <mxPoint x="-44" y="-65" as="offset"/>
                    </mxGeometry>
                </mxCell>
                <object label="Countdown" type="state" id="EBAIrEwSQ_sO8G7dM4pI-12">
                    <mxCell style="swimlane;rounded=1;whiteSpace=wrap;html=1;glass=0;sketch=0;startSize=23;" parent="1" vertex="1">
                        <mxGeometry x="-240" y="240" width="250" height="85" as="geometry"/>
                    </mxCell>
                </object>
                <mxCell id="EBAIrEwSQ_sO8G7dM4pI-20" style="edgeStyle=orthogonalEdgeStyle;rounded=0;orthogonalLoop=1;jettySize=auto;html=1;exitX=0.5;exitY=1;exitDx=0;exitDy=0;exitPerimeter=0;entryX=0;entryY=0.75;entryDx=0;entryDy=0;endArrow=none;endFill=0;dashed=1;" parent="1" source="EBAIrEwSQ_sO8G7dM4pI-19" target="EBAIrEwSQ_sO8G7dM4pI-10" edge="1">
                    <mxGeometry relative="1" as="geometry"/>
                </mxCell>
                <object label="" type="note" id="EBAIrEwSQ_sO8G7dM4pI-19">
                    <mxCell style="shape=note;whiteSpace=wrap;html=1;backgroundOutline=1;darkOpacity=0.05;glass=0;sketch=0;fillColor=#ffffff;" parent="1" vertex="1">
                        <mxGeometry x="-660" y="-70" width="80" height="100" as="geometry"/>
                    </mxCell>
                </object>
                <object label="TimerSet" type="state" id="m3naWr25p_J3Rivu2WGc-2">
                    <mxCell style="swimlane;rounded=1;whiteSpace=wrap;html=1;glass=0;sketch=0;startSize=23;" parent="1" vertex="1">
                        <mxGeometry x="-240" y="72.5" width="250" height="85" as="geometry"/>
                    </mxCell>
                </object>
                <mxCell id="HdLz7Pnjk3gmC13WeZwF-1" style="edgeStyle=orthogonalEdgeStyle;rounded=0;orthogonalLoop=1;jettySize=auto;html=1;entryX=0.75;entryY=1;entryDx=0;entryDy=0;exitX=0.75;exitY=0;exitDx=0;exitDy=0;" parent="1" source="EBAIrEwSQ_sO8G7dM4pI-12" target="m3naWr25p_J3Rivu2WGc-2" edge="1">
                    <mxGeometry relative="1" as="geometry">
                        <mxPoint x="-80" y="157.5" as="targetPoint"/>
                        <mxPoint x="-80" y="240" as="sourcePoint"/>
                    </mxGeometry>
                </mxCell>
                <mxCell id="HdLz7Pnjk3gmC13WeZwF-2" value="Stop" style="edgeLabel;html=1;align=center;verticalAlign=middle;resizable=0;points=[];" parent="HdLz7Pnjk3gmC13WeZwF-1" vertex="1" connectable="0">
                    <mxGeometry x="-0.0875" y="1" relative="1" as="geometry">
                        <mxPoint x="-1" y="-2" as="offset"/>
                    </mxGeometry>
                </mxCell>
                <mxCell id="HdLz7Pnjk3gmC13WeZwF-3" style="edgeStyle=orthogonalEdgeStyle;rounded=0;orthogonalLoop=1;jettySize=auto;html=1;entryX=0.25;entryY=0;entryDx=0;entryDy=0;exitX=0.25;exitY=1;exitDx=0;exitDy=0;" parent="1" source="m3naWr25p_J3Rivu2WGc-2" target="EBAIrEwSQ_sO8G7dM4pI-12" edge="1">
                    <mxGeometry relative="1" as="geometry">
                        <mxPoint x="-170" y="240" as="targetPoint"/>
                        <mxPoint x="-120" y="180" as="sourcePoint"/>
                    </mxGeometry>
                </mxCell>
                <mxCell id="HdLz7Pnjk3gmC13WeZwF-4" value="Start" style="edgeLabel;html=1;align=center;verticalAlign=middle;resizable=0;points=[];" parent="HdLz7Pnjk3gmC13WeZwF-3" vertex="1" connectable="0">
                    <mxGeometry x="-0.0875" y="1" relative="1" as="geometry">
                        <mxPoint x="-3" y="5" as="offset"/>
                    </mxGeometry>
                </mxCell>
                <mxCell id="5" style="edgeStyle=none;html=1;exitX=0.5;exitY=1;exitDx=0;exitDy=0;entryX=0.5;entryY=0;entryDx=0;entryDy=0;" parent="1" source="4" target="m3naWr25p_J3Rivu2WGc-2" edge="1">
                    <mxGeometry relative="1" as="geometry"/>
                </mxCell>
                <mxCell id="6" value="SetTime" style="edgeLabel;html=1;align=center;verticalAlign=middle;resizable=0;points=[];" parent="5" vertex="1" connectable="0">
                    <mxGeometry x="-0.5158" y="1" relative="1" as="geometry">
                        <mxPoint x="-1" y="14" as="offset"/>
                    </mxGeometry>
                </mxCell>
                <object label="Idle" type="state" id="4">
                    <mxCell style="swimlane;rounded=1;whiteSpace=wrap;html=1;glass=0;sketch=0;startSize=23;" parent="1" vertex="1">
                        <mxGeometry x="-240" y="-80" width="250" height="85" as="geometry"/>
                    </mxCell>
                </object>
            </root>
        </mxGraphModel>
    </diagram>
</mxfile>